<?xml version="1.0" encoding="UTF-8" standalone="no"?>
<svg
   xmlns:dc="http://purl.org/dc/elements/1.1/"
   xmlns:cc="http://creativecommons.org/ns#"
   xmlns:rdf="http://www.w3.org/1999/02/22-rdf-syntax-ns#"
   xmlns:svg="http://www.w3.org/2000/svg"
   xmlns="http://www.w3.org/2000/svg"
   xmlns:sodipodi="http://sodipodi.sourceforge.net/DTD/sodipodi-0.dtd"
   xmlns:inkscape="http://www.inkscape.org/namespaces/inkscape"
   xml:space="preserve"
   viewBox="0 0 2291.9999 573"
   y="0px"
   x="0px"
   id="Слой_1"
   version="1.1"
   width="2292"
   height="573"
   sodipodi:docname="Tap2pay_Logo.svg"
   inkscape:version="0.92.2 5c3e80d, 2017-08-06"><sodipodi:namedview
     pagecolor="#ffffff"
     bordercolor="#666666"
     borderopacity="1"
     objecttolerance="10"
     gridtolerance="10"
     guidetolerance="10"
     inkscape:pageopacity="0"
     inkscape:pageshadow="2"
     inkscape:window-width="1858"
     inkscape:window-height="1051"
     id="namedview29"
     showgrid="false"
     inkscape:zoom="0.13699825"
     inkscape:cx="1146"
     inkscape:cy="286.5"
     inkscape:window-x="0"
     inkscape:window-y="0"
     inkscape:window-maximized="1"
     inkscape:current-layer="Слой_1" /><metadata
     id="metadata46"><rdf:RDF><cc:Work
         rdf:about=""><dc:format>image/svg+xml</dc:format><dc:type
           rdf:resource="http://purl.org/dc/dcmitype/StillImage" /><dc:title></dc:title></cc:Work></rdf:RDF></metadata><defs
     id="defs44" /><style
     id="style2"
     type="text/css">
	.st0{fill:#3E72C6;}
	.st1{fill:#143DA5;}
	.st2{fill:#64BF6A;}
	.st3{opacity:0.79;}
	.st4{fill:#EBFFEB;}
</style><path
     d="m 1458.7,106.5 c -122.2,0 -221,99 -221,221 0,122 99,221 221,221 122,0 221,-99 221,-221 0,-122 -98.8,-221 -221,-221 z m 87.8,323.7 c -5,5 -10.6,7.2 -16.9,7.2 h -141.1 c -4.7,-0.2 -8.8,-1.6 -12.4,-4.1 -4.1,-2.7 -7.2,-5.9 -9.7,-9.7 -2.3,-3.4 -3.2,-8.6 -2.9,-15.1 0.2,-5.6 4.5,-11.3 12.8,-16.9 l 0.2,-0.2 106.9,-79 c 9.2,-6.5 11.7,-14.6 11.9,-20 v -0.4 -0.5 c -0.5,-9.5 -4.3,-17.1 -11.3,-22.1 -6.1,-4.3 -14,-6.3 -24.3,-6.3 -0.9,0 -1.6,0 -2.5,0 -10.4,0 -19.6,2.9 -27.7,8.8 -7.7,5.4 -14,12.2 -18.5,20 -3.2,4.7 -6.5,8.6 -10.4,11.7 -2.9,2.5 -7,3.8 -12.2,3.8 -6.8,0 -12.6,-2.5 -17.6,-7.2 -5,-5 -7.2,-10.6 -7.2,-17.6 0,-7 2.9,-15.3 9,-24.3 6.3,-9.5 15.5,-17.8 27.7,-25 12.4,-7.4 23,-11.9 31.1,-13.5 8.6,-1.6 16,-2.5 22.1,-2.5 16.2,0 29.7,1.6 40.3,5 10.4,3.2 19.8,8.3 28.1,15.1 8.3,7 15.1,15.1 20.3,24.5 5,9 7.4,19.8 7.4,31.7 0,17.3 -7.7,31.3 -23.2,42.8 l -71.1,51.8 h 73.8 c 6.5,0 12.2,2.3 17.1,7 4.7,4.5 7.2,10.1 7.2,17.3 0.5,7.1 -1.9,12.7 -6.9,17.7 z"
     class="st0"
     id="XMLID_177_"
     style="fill:#fffffa;fill-opacity:1" /><g
     id="XMLID_169_"
     style="fill:#fffffa;fill-opacity:1"><path
       d="m 839.7,181.4 c 0,9 -3.2,16.3 -9.5,21.9 -6.1,5.3 -14.9,8.1 -26.3,8.1 h -56.2 v 199.4 c 0,13.4 -3.2,23.8 -9.6,30.7 -6.5,7.1 -15,10.7 -25.2,10.7 -10.3,0 -18.9,-3.6 -25.5,-10.7 -6.5,-7 -9.7,-17.3 -9.7,-30.6 V 211.3 h -56.2 c -11.4,0 -20.2,-2.7 -26.1,-8.1 -6.1,-5.6 -9.3,-12.9 -9.3,-21.8 0,-9.3 3.3,-16.7 9.7,-22.2 6.1,-5.3 14.8,-7.9 25.7,-7.9 h 182.4 c 11.5,0 20.4,2.8 26.4,8.2 6.2,5.6 9.4,12.9 9.4,21.9 z"
       class="st1"
       id="XMLID_176_"
       style="fill:#fffffa;fill-opacity:1" /><path
       d="m 1036.2,401.6 c -3.1,-10.1 -4.6,-19.9 -4.7,-29.1 0.1,-10.6 0.2,-20.2 0.3,-28.8 0.1,-8.6 0.1,-19.2 0.1,-31.5 0,-20.4 -3,-37.2 -8.8,-49.8 -6.2,-13.3 -16.7,-23.1 -31.5,-29.2 -14,-5.8 -33.2,-8.7 -57.1,-8.7 -21.5,0 -39.8,3 -54.4,9 -14.9,6.1 -26.2,14.1 -33.4,23.7 -7.4,9.9 -11.1,20.2 -11.1,30.9 0,7.8 2.9,14.3 8.6,19.4 5.5,4.8 12.1,7.3 19.6,7.3 8.6,0 14.4,-1.9 17.7,-5.9 2.2,-2.6 5.7,-7.7 10.7,-15.4 4.2,-6.5 9.3,-11.5 15.1,-14.7 5.8,-3.2 14.9,-4.8 27.2,-4.8 13.2,0 22.1,2.5 25.7,7.3 3.6,4.7 5.8,12.1 6.8,22 -9.1,2.6 -17.7,4.8 -25.6,6.7 -9.3,2.2 -20.7,4.7 -33.9,7.4 -13.2,2.7 -21.7,4.5 -25,5.2 -17.2,3.8 -31.1,11.3 -41.1,22.5 -10.2,11.3 -15.4,25.2 -15.4,41.2 0,11.8 3.1,22.9 9.2,33.1 6.1,10.1 14.9,18.2 26.2,24.1 11.1,5.8 24.1,8.7 38.6,8.7 15.6,0 29.9,-2.7 42.5,-7.9 10.6,-4.4 21.7,-10.8 32.9,-19 4.9,7.3 9.5,13.1 14.1,17.5 6.5,6.3 13.4,9.4 20.5,9.4 8,0 15.2,-2.8 21.5,-8.2 6.5,-5.7 9.8,-12.3 9.8,-19.6 0.1,-2.8 -0.5,-7.7 -5.1,-22.8 z m -117.9,3.1 c -8.2,0 -14.6,-2.2 -19.4,-6.7 -4.7,-4.4 -7,-9.5 -7,-15.7 0,-5.8 1.8,-10.1 5.4,-13.2 4.4,-3.7 9,-6.2 13.8,-7.4 5.6,-1.4 15.8,-3.8 30.4,-6.9 10.3,-2.2 19,-4.3 26,-6.4 -0.1,16.4 -2.2,28.1 -6.3,35 -3.5,6.1 -9.1,11.2 -16.8,15.2 -8,4.1 -16.7,6.1 -26.1,6.1 z"
       class="st1"
       id="XMLID_173_"
       style="fill:#fffffa;fill-opacity:1" /><path
       d="m 1272.8,278.1 c -8.4,-17.1 -20.1,-30.4 -34.8,-39.3 -14.6,-9 -30.8,-13.5 -48.2,-13.5 -14.5,0 -27.8,3.2 -39.3,9.4 -7.6,4.1 -15.1,9.7 -22.3,16.9 -1.2,-6.8 -3.9,-12.5 -8,-16.9 -5.9,-6.4 -13.7,-9.7 -23,-9.7 -9.5,0 -17.1,3.2 -22.8,9.6 -5.4,6.1 -8.2,15.1 -8.2,26.7 v 227.6 c 0,12.6 1.8,22.2 5.6,29.2 4.4,8.2 12.9,12.3 25.3,12.3 27.6,0 31.7,-25.8 31.7,-41.2 v -62.5 c 6.3,6.3 12.9,11.4 19.6,15.4 11.2,6.6 25.1,10 41.2,10 13.3,0 26,-2.7 37.7,-8 11.7,-5.3 21.9,-13 30.5,-22.9 8.5,-9.8 15.3,-22 20.1,-36.3 4.8,-14.2 7.2,-29.9 7.2,-46.8 0.2,-22.9 -4,-43.1 -12.3,-60 z m -95.9,120.4 c -12.8,0 -23.3,-5 -32,-15.2 -8.9,-10.4 -13.4,-25.5 -13.4,-44.9 0,-20.6 4.5,-36.2 13.4,-46.4 8.8,-10.1 19.3,-15 32,-15 7.9,0 14.8,2.2 21.3,6.9 6.5,4.6 11.7,11.5 15.5,20.3 3.9,9.1 5.9,20.4 5.9,33.3 0,13.5 -2.1,25 -6.2,34.3 -4,9 -9.3,15.8 -15.7,20.2 -6.5,4.4 -13.3,6.5 -20.8,6.5 z"
       class="st1"
       id="XMLID_170_"
       style="fill:#fffffa;fill-opacity:1" /></g><g
     id="XMLID_161_"
     style="fill:#fffffa;fill-opacity:1"><path
       d="m 1828.1,271.1 c -8.4,-17.1 -20.1,-30.4 -34.8,-39.3 -14.6,-9 -30.8,-13.5 -48.2,-13.5 -14.5,0 -27.8,3.1 -39.3,9.4 -7.6,4.1 -15.1,9.7 -22.3,16.9 -1.2,-6.8 -3.9,-12.5 -8,-16.9 -5.9,-6.4 -13.7,-9.7 -22.9,-9.7 -9.5,0 -17.1,3.2 -22.8,9.6 -5.4,6.1 -8.2,15.1 -8.2,26.7 v 227.6 c 0,12.7 1.8,22.2 5.6,29.2 4.4,8.2 12.9,12.3 25.3,12.3 27.6,0 31.7,-25.8 31.7,-41.2 v -62.5 c 6.3,6.3 12.9,11.4 19.7,15.4 11.2,6.6 25.1,10 41.2,10 13.3,0 26,-2.7 37.7,-8 11.7,-5.3 21.9,-13 30.5,-22.9 8.5,-9.8 15.3,-22 20.1,-36.3 4.8,-14.2 7.2,-29.9 7.2,-46.8 0,-22.9 -4.2,-43.1 -12.5,-60 z m -59.4,93.7 c -4,9 -9.3,15.8 -15.7,20.2 -6.4,4.4 -13.2,6.5 -20.8,6.5 -12.8,0 -23.3,-5 -32,-15.2 -8.9,-10.4 -13.3,-25.5 -13.3,-44.8 0,-20.6 4.5,-36.2 13.4,-46.4 8.8,-10.1 19.3,-15 32,-15 7.9,0 14.8,2.2 21.3,6.8 6.5,4.6 11.7,11.5 15.5,20.3 3.9,9.1 5.9,20.4 5.9,33.3 -0.1,13.5 -2.2,25 -6.3,34.3 z"
       class="st1"
       id="XMLID_166_"
       style="fill:#fffffa;fill-opacity:1" /><path
       d="m 2068.9,394.6 c -3.1,-10.1 -4.6,-19.9 -4.6,-29.1 0.1,-10.6 0.2,-20.2 0.3,-28.8 0.1,-8.6 0.1,-19.2 0.1,-31.5 0,-20.4 -3,-37.2 -8.8,-49.8 -6.1,-13.3 -16.7,-23.1 -31.5,-29.2 -14,-5.8 -33.2,-8.7 -57.1,-8.7 -21.5,0 -39.8,3 -54.4,9 -14.9,6.1 -26.2,14.1 -33.4,23.7 -7.4,9.8 -11.1,20.2 -11.1,30.9 0,7.8 2.9,14.3 8.6,19.4 5.5,4.8 12.1,7.3 19.6,7.3 8.6,0 14.4,-1.9 17.8,-5.9 2.2,-2.6 5.7,-7.7 10.7,-15.4 4.2,-6.5 9.3,-11.5 15.1,-14.7 5.8,-3.2 14.9,-4.8 27.1,-4.8 13.2,0 22.1,2.5 25.8,7.3 3.6,4.7 5.8,12.1 6.8,22 -9.1,2.6 -17.7,4.8 -25.6,6.7 -9.3,2.2 -20.7,4.7 -33.9,7.4 -13.2,2.7 -21.7,4.5 -25,5.2 -17.2,3.8 -31,11.3 -41.1,22.5 -10.2,11.3 -15.4,25.2 -15.4,41.2 0,11.8 3.1,22.9 9.2,33.1 6.1,10.1 14.9,18.2 26.2,24.1 11.1,5.8 24.1,8.8 38.6,8.8 15.6,0 29.9,-2.7 42.6,-7.9 10.6,-4.4 21.7,-10.8 32.9,-19 4.9,7.3 9.5,13.1 14.1,17.5 6.5,6.3 13.4,9.4 20.5,9.4 8,0 15.2,-2.8 21.5,-8.2 6.5,-5.7 9.8,-12.3 9.8,-19.6 -0.2,-2.8 -0.8,-7.8 -5.4,-22.9 z m -117.9,3.2 c -8.2,0 -14.5,-2.2 -19.4,-6.7 -4.7,-4.4 -7,-9.5 -7,-15.7 0,-5.8 1.8,-10.1 5.4,-13.2 4.4,-3.7 9,-6.2 13.8,-7.4 5.6,-1.5 15.8,-3.8 30.4,-6.9 10.3,-2.2 19,-4.3 26,-6.4 -0.1,16.4 -2.2,28.1 -6.3,35 -3.5,6.1 -9.1,11.2 -16.8,15.2 -8,4 -16.8,6.1 -26.1,6.1 z"
       class="st1"
       id="XMLID_163_"
       style="fill:#fffffa;fill-opacity:1" /><path
       d="m 2289.1,247.4 v 0.7 l -0.1,0.7 c -0.6,2.6 -1.4,6.2 -2.6,10.7 -1.2,4.6 -2.7,9.5 -4.4,14.3 L 2213.2,454 c -6,16.1 -12.1,29.1 -17.9,38.4 -6.3,10 -14.7,17.7 -25,23 -10.2,5.3 -23.9,8 -40.7,8 -16.5,0 -28.7,-1.8 -37.3,-5.6 -10.1,-4.4 -15.4,-12.8 -15.4,-24.2 0,-7.9 2.6,-14.2 7.6,-18.8 4.9,-4.3 11.8,-6.5 20.6,-6.5 3.4,0 6.7,0.4 9.9,1.3 2.8,0.6 5.2,1 7.1,1 4.9,0 8.9,-0.7 11.4,-2 2.4,-1.3 4.8,-3.7 6.9,-7.1 2.6,-4.1 5.6,-10.4 9.1,-18.7 l 3.8,-9.4 -64,-161.1 c -4.4,-10.3 -6.4,-17.6 -6.4,-22.8 0,-5.7 1.5,-11 4.4,-15.8 2.9,-4.8 6.9,-8.7 11.9,-11.5 5,-2.9 10.3,-4.3 15.8,-4.3 9.6,0 17.1,3.2 22.2,9.6 4.4,5.5 8.1,12.9 11.3,22.8 l 38.6,112.4 36.2,-103.4 c 3.4,-10 6.6,-17.9 9.4,-23.7 3.3,-6.7 6.8,-11.2 10.9,-13.8 4.1,-2.6 9.4,-3.9 16.3,-3.9 5.1,0 10.1,1.4 14.7,4 4.7,2.7 8.3,6.4 10.9,11 2.4,4.6 3.6,9.5 3.6,14.5 z"
       class="st1"
       id="XMLID_162_"
       style="fill:#fffffa;fill-opacity:1" /></g><g
     style="fill:#fffffa;fill-opacity:1"
     id="g15"><path
       id="path13"
       d="m 262.8,-15.7 h -0.4 v -6.4 c 0,2.2 0.1,4.3 0.4,6.4 z"
       class="st2"
       style="fill:#fffffa;fill-opacity:1" /></g><path
     id="path17"
     d="m -127.5,29.5 v 6.4 h -0.4 c 0.2,-2.1 0.4,-4.2 0.4,-6.4 z"
     class="st2"
     style="fill:#fffffa;fill-opacity:1" /><g
     id="g21"
     class="st3"
     style="opacity:0.79000005;fill:#fffffa;fill-opacity:1"><path
       id="path19"
       d="m 316,175.8 h -1.4 c 0.2,0 0.5,0 0.7,0 0.2,0 0.5,0 0.7,0 z"
       class="st4"
       style="fill:#fffffa;fill-opacity:1" /></g><path
     id="path23"
     d="m 2819.1,503.7 v 6.4 h -0.4 c 0.3,-2.1 0.4,-4.3 0.4,-6.4 z"
     class="st2"
     style="fill:#fffffa;fill-opacity:1" /><g
     style="fill:#fffffa;fill-opacity:1"
     id="g35"><g
       id="g27"
       style="fill:#fffffa;fill-opacity:1"><path
         id="path25"
         d="m 234.2,573 c -22.1,0 -40,-17.9 -40,-40 V 356 c 0,-65.6 53.4,-119 119,-119 h 50 c 43.3,0 78.5,-35.2 78.5,-78.5 0,-43.3 -35.2,-78.5 -78.5,-78.5 h -129 c -22.1,0 -40,-17.9 -40,-40 0,-22.1 17.9,-40 40,-40 h 129 c 87.4,0 158.5,71.1 158.5,158.5 0,87.4 -71.1,158.5 -158.5,158.5 h -50 c -21.5,0 -39,17.5 -39,39 v 177 c 0,22.1 -17.9,40 -40,40 z"
         class="st1"
         style="fill:#fffffa;fill-opacity:1" /></g><g
       id="g31"
       style="fill:#fffffa;fill-opacity:1"><path
         id="path29"
         d="m 112.2,573 c -22.1,0 -40,-17.9 -40,-40 V 333.5 C 72.2,275.9 94.6,221.8 135.3,181.1 176,140.4 230.1,118 287.7,118 h 66.5 c 22.1,0 40,17.9 40,40 0,22.1 -17.9,40 -40,40 H 287.7 C 213,198 152.2,258.8 152.2,333.5 V 533 c 0,22.1 -17.9,40 -40,40 z"
         class="st0"
         style="fill:#fffffa;fill-opacity:1" /></g><path
       id="path33"
       d="M 301.2,197.6 H 39.8 C 17.9,197.6 0,179.7 0,157.9 v 0 C 0,136 17.9,118.1 39.8,118.1 h 261.4 c 21.9,0 39.8,17.9 39.8,39.8 v 0 c 0,21.8 -17.9,39.7 -39.8,39.7 z"
       class="st0"
       style="fill:#fffffa;fill-opacity:1" /></g><g
     style="fill:#fffffa;fill-opacity:1"
     id="g39"><path
       id="path37"
       d="m 262.8,676.3 h -0.4 v -6.4 c 0,2.2 0.1,4.3 0.4,6.4 z"
       class="st2"
       style="fill:#fffffa;fill-opacity:1" /></g></svg>