<?xml version="1.0" encoding="UTF-8" standalone="no"?>
<svg
   xmlns:dc="http://purl.org/dc/elements/1.1/"
   xmlns:cc="http://creativecommons.org/ns#"
   xmlns:rdf="http://www.w3.org/1999/02/22-rdf-syntax-ns#"
   xmlns:svg="http://www.w3.org/2000/svg"
   xmlns="http://www.w3.org/2000/svg"
   id="svg1517"
   version="1.1"
   viewBox="0 0 2000 125"
   height="125mm"
   width="2000mm">
  <defs
     id="defs1511" />
  <metadata
     id="metadata1514">
    <rdf:RDF>
      <cc:Work
         rdf:about="">
        <dc:format>image/svg+xml</dc:format>
        <dc:type
           rdf:resource="http://purl.org/dc/dcmitype/StillImage" />
        <dc:title></dc:title>
      </cc:Work>
    </rdf:RDF>
  </metadata>
  <g
     transform="translate(765.47911,1.2339068)"
     id="layer1">
    <g
       transform="matrix(1.6349266,0,0,1.6349266,-795.43423,-34.49363)"
       id="g4158">
      <polygon
         style="fill:#00579f"
         id="polygon9"
         points="116.145,95.719 97.858,95.719 109.296,24.995 127.582,24.995 " />
      <path
         style="fill:#00579f"
         id="path11"
         d="m 182.437,26.724 c -3.607,-1.431 -9.328,-3.011 -16.402,-3.011 -18.059,0 -30.776,9.63 -30.854,23.398 -0.15,10.158 9.105,15.8 16.027,19.187 7.075,3.461 9.48,5.72 9.48,8.805 -0.072,4.738 -5.717,6.922 -10.982,6.922 -7.301,0 -11.213,-1.126 -17.158,-3.762 l -2.408,-1.13 -2.559,15.876 c 4.289,1.954 12.191,3.688 20.395,3.764 19.188,0 31.68,-9.481 31.828,-24.153 0.073,-8.051 -4.814,-14.22 -15.35,-19.261 -6.396,-3.236 -10.313,-5.418 -10.313,-8.729 0.075,-3.01 3.313,-6.093 10.533,-6.093 5.945,-0.151 10.313,1.278 13.622,2.708 l 1.654,0.751 z" />
      <path
         style="fill:#00579f"
         id="path13"
         d="m 206.742,70.664 c 1.506,-4.063 7.301,-19.788 7.301,-19.788 -0.076,0.151 1.503,-4.138 2.406,-6.771 l 1.278,6.094 c 0,0 3.463,16.929 4.215,20.465 -2.858,0 -11.588,0 -15.2,0 z M 229.315,24.995 H 215.17 c -4.362,0 -7.676,1.278 -9.558,5.868 l -27.163,64.855 h 19.188 c 0,0 3.159,-8.729 3.838,-10.609 2.105,0 20.771,0 23.479,0 0.525,2.483 2.182,10.609 2.182,10.609 h 16.932 z" />
      <path
         style="fill:#00579f"
         id="path15"
         d="M 82.584,24.995 64.675,73.222 62.718,63.441 C 59.407,52.155 49.023,39.893 37.435,33.796 l 16.404,61.848 h 19.338 l 28.744,-70.649 z" />
      <path
         style="fill:#faa61a"
         id="path17"
         d="M 48.045,24.995 H 18.623 l -0.301,1.429 c 22.951,5.869 38.151,20.016 44.396,37.02 L 56.322,30.94 c -1.053,-4.517 -4.289,-5.796 -8.277,-5.945 z" />
    </g>
    <g
       id="g104"
       transform="matrix(0.49453997,0,0,0.49453997,-277.99161,-59.808966)">
      <polygon
         id="polygon2"
         points="416.418,151.029 411.57,147.75 406.514,144.709 401.332,141.904 395.98,139.337 390.466,136.967 384.824,134.874 379.057,133.017 373.162,131.438 367.188,130.134 361.045,129.106 354.857,128.356 348.549,127.923 342.152,127.764 335.801,127.923 329.49,128.356 323.305,129.106 317.203,130.134 311.229,131.438 305.334,133.017 299.609,134.874 293.969,136.967 288.492,139.337 283.186,141.904 278.004,144.709 272.988,147.75 268.141,151.029 263.459,154.504 258.988,158.177 254.684,162.049 250.588,166.116 246.701,170.383 243.023,174.767 239.596,179.35 236.377,184.129 233.412,188.986 230.654,194.043 228.186,199.217 225.971,204.51 224.049,209.961 222.377,215.491 220.998,221.14 219.912,226.866 219.119,232.712 218.658,238.636 218.492,244.642 218.658,250.685 219.119,256.646 219.912,262.493 220.998,268.3 222.377,273.949 224.049,279.518 225.971,284.971 228.186,290.301 230.654,295.516 233.412,300.568 236.377,305.471 239.596,310.249 243.023,314.829 246.701,319.254 250.588,323.521 254.684,327.589 258.988,331.497 263.459,335.172 268.141,338.648 272.988,341.926 278.004,344.968 283.186,347.813 288.492,350.38 293.969,352.749 299.609,354.842 305.334,356.698 311.229,358.279 317.203,359.583 323.305,360.609 329.49,361.359 335.801,361.793 342.152,361.952 348.549,361.793 354.857,361.359 361.045,360.609 367.188,359.583 373.162,358.279 379.057,356.698 384.824,354.842 390.466,352.749 395.98,350.38 401.332,347.813 406.514,344.968 411.57,341.926 416.418,338.648 421.098,335.172 425.611,331.497 429.916,327.589 434.055,323.521 437.941,319.254 441.619,314.829 445.086,310.249 448.305,305.471 451.314,300.568 454.031,295.516 456.537,290.301 458.752,284.971 460.717,279.518 462.391,273.949 463.768,268.3 464.855,262.493 465.648,256.646 466.109,250.685 466.275,244.642 466.109,238.636 465.648,232.712 464.855,226.866 463.768,221.14 462.391,215.491 460.717,209.961 458.752,204.51 456.537,199.217 454.031,194.043 451.314,188.986 448.305,184.129 445.086,179.35 441.619,174.767 437.941,170.383 434.055,166.116 429.916,162.049 425.611,158.177 421.098,154.504 "
         style="fill:#fbb231" />
      <polygon
         id="polygon4"
         points="250.42,151.029 245.572,147.75 240.557,144.709 235.373,141.904 230.066,139.337 224.592,136.967 218.949,134.874 213.223,133.017 207.332,131.438 201.355,130.134 195.256,129.106 189.068,128.356 182.758,127.923 176.404,127.764 170.014,127.923 163.703,128.356 157.516,129.106 151.373,130.134 145.396,131.438 139.504,133.017 133.737,134.874 128.094,136.967 122.58,139.337 117.229,141.904 112.046,144.709 106.991,147.75 102.141,151.029 97.46,154.504 92.949,158.177 88.644,162.049 84.505,166.116 80.618,170.383 76.942,174.767 73.474,179.35 70.254,184.129 67.246,188.986 64.527,194.043 62.021,199.217 59.808,204.51 57.841,209.961 56.17,215.491 54.792,221.14 53.706,226.866 52.911,232.712 52.452,238.636 52.283,244.642 52.452,250.685 52.911,256.646 53.706,262.493 54.792,268.3 56.17,273.949 57.841,279.518 59.808,284.971 62.021,290.301 64.527,295.516 67.246,300.568 70.254,305.471 73.474,310.249 76.942,314.829 80.618,319.254 84.505,323.521 88.644,327.589 92.949,331.497 97.46,335.172 102.141,338.648 106.991,341.926 112.046,344.968 117.229,347.813 122.58,350.38 128.094,352.749 133.737,354.842 139.504,356.698 145.396,358.279 151.373,359.583 157.516,360.609 163.703,361.359 170.014,361.793 176.404,361.952 182.758,361.793 189.068,361.359 195.256,360.609 201.355,359.583 207.332,358.279 213.223,356.698 218.949,354.842 224.592,352.749 230.066,350.38 235.373,347.813 240.557,344.968 245.572,341.926 250.42,338.648 255.102,335.172 259.572,331.497 263.877,327.589 267.975,323.521 271.859,319.254 275.537,314.829 278.965,310.249 282.182,305.471 285.148,300.568 287.906,295.516 290.373,290.301 292.59,284.971 294.51,279.518 296.182,273.949 297.563,268.3 298.648,262.493 299.441,256.646 299.902,250.685 300.068,244.642 299.902,238.636 299.441,232.712 298.648,226.866 297.563,221.14 296.182,215.491 294.51,209.961 292.59,204.51 290.373,199.217 287.906,194.043 285.148,188.986 282.182,184.129 278.965,179.35 275.537,174.767 271.859,170.383 267.975,166.116 263.877,162.049 259.572,158.177 255.102,154.504 "
         style="fill:#ec1c2e" />
      <polygon
         id="polygon6"
         points="250.461,166.314 244.777,172.674 310.602,172.674 310.602,166.314 "
         style="fill:#fbb231" />
      <polygon
         id="polygon8"
         points="238.885,180.455 234.916,186.814 310.602,186.814 310.602,180.455 "
         style="fill:#fbb231" />
      <polygon
         id="polygon10"
         points="230.484,194.556 227.559,200.915 310.602,200.915 310.602,194.556 "
         style="fill:#fbb231" />
      <polygon
         id="polygon12"
         points="224.592,208.696 222.502,215.055 310.602,215.055 310.602,208.696 "
         style="fill:#fbb231" />
      <polygon
         id="polygon14"
         points="223.34,277.029 225.428,283.391 310.811,283.391 310.811,277.029 "
         style="fill:#fbb231" />
      <polygon
         id="polygon16"
         points="228.605,291.171 231.738,297.527 310.811,297.527 310.811,291.171 "
         style="fill:#fbb231" />
      <polygon
         id="polygon18"
         points="236.377,305.271 240.6,311.632 310.811,311.632 310.811,305.271 "
         style="fill:#fbb231" />
      <polygon
         id="polygon20"
         points="246.908,319.372 252.805,325.771 310.811,325.771 310.811,319.372 "
         style="fill:#fbb231" />
      <polygon
         id="polygon22"
         points="220.83,222.798 219.535,229.158 310.602,229.158 310.602,222.798 "
         style="fill:#fbb231" />
      <polygon
         id="polygon24"
         points="276.289,262.93 275.035,269.288 309.766,269.288 309.766,262.93 "
         style="fill:#fbb231" />
      <polygon
         id="polygon26"
         points="279.049,248.787 277.793,255.188 309.766,255.188 309.766,248.787 "
         style="fill:#fbb231" />
      <polygon
         id="polygon28"
         points="217.656,255.188 217.236,248.787 226.266,248.787 226.266,255.188 "
         style="fill:#fbb231" />
      <polygon
         id="polygon30"
         points="198.305,267.115 197.471,268.419 196.508,269.564 195.422,270.551 194.25,271.421 192.955,272.172 191.617,272.764 190.24,273.277 188.818,273.671 187.357,273.986 185.936,274.225 184.557,274.344 183.178,274.423 181.881,274.462 180.082,274.462 178.412,274.423 176.949,274.423 175.57,274.382 174.318,274.344 173.189,274.264 172.188,274.188 171.223,274.066 170.346,273.986 169.553,273.831 168.76,273.712 168.047,273.516 167.338,273.355 166.668,273.12 166,272.883 165.289,272.645 167.17,263.917 167.547,263.995 168.008,264.113 168.59,264.271 169.301,264.43 170.055,264.587 170.891,264.746 171.811,264.941 172.813,265.102 173.857,265.259 174.945,265.416 176.072,265.536 177.244,265.654 178.453,265.693 179.666,265.732 180.879,265.732 182.09,265.693 183.303,265.457 184.262,265.141 185.016,264.705 185.6,264.152 186.018,263.602 186.354,262.968 186.563,262.336 186.73,261.744 186.813,260.6 186.436,259.611 185.727,258.82 184.682,258.148 183.428,257.557 181.965,256.965 180.334,256.411 178.703,255.78 177.033,255.069 175.445,254.238 173.982,253.211 172.645,251.987 171.6,250.486 170.848,248.709 170.471,246.575 170.514,244.048 170.723,242.508 171.016,241.046 171.436,239.704 171.934,238.439 172.602,237.255 173.355,236.228 174.234,235.24 175.277,234.372 176.492,233.621 177.828,232.989 179.33,232.396 181.004,231.962 182.885,231.606 184.932,231.329 187.188,231.172 189.656,231.132 191.201,231.132 192.621,231.172 193.918,231.211 195.09,231.251 196.133,231.329 197.094,231.409 197.928,231.488 198.68,231.566 199.393,231.646 199.977,231.764 200.521,231.843 201.023,231.922 201.439,232.001 201.818,232.04 202.191,232.12 202.527,232.16 200.396,241.086 199.809,241.046 199.225,240.967 198.68,240.888 198.139,240.81 197.637,240.731 197.094,240.651 196.549,240.572 195.965,240.493 195.381,240.414 194.713,240.374 193.961,240.336 193.166,240.296 192.287,240.296 191.326,240.336 190.24,240.414 189.029,240.493 188.191,240.612 187.398,240.731 186.688,240.967 186.061,241.204 185.475,241.48 184.932,241.797 184.512,242.192 184.137,242.548 183.887,242.981 183.68,243.417 183.594,243.891 183.594,244.365 183.721,244.878 183.887,245.391 184.225,245.905 184.639,246.418 185.475,247.167 186.479,247.762 187.648,248.274 188.902,248.709 190.24,249.104 191.617,249.538 192.996,250.013 194.336,250.527 195.59,251.197 196.76,252.026 197.803,253.015 198.68,254.238 199.352,255.739 199.77,257.52 199.936,259.65 199.77,262.139 199.475,263.995 198.975,265.614 "
         style="fill:#ffffff" />
      <polyline
         id="polyline32"
         points="200.396,241.086 200.396,241.086    199.809,241.046 199.225,240.967 198.68,240.888 198.139,240.81 197.637,240.731 197.094,240.651 196.549,240.572 195.965,240.493    195.381,240.414 194.713,240.374 193.961,240.336 193.166,240.296 192.287,240.296 191.326,240.336 190.24,240.414    189.029,240.493 189.029,240.493 188.191,240.612 187.398,240.731 186.688,240.967 186.061,241.204 185.475,241.48    184.932,241.797 184.512,242.192 184.137,242.548 183.887,242.981 183.68,243.417 183.594,243.891 183.594,244.365    183.721,244.878 183.887,245.391 184.225,245.905 184.639,246.418 184.639,246.418 185.475,247.167 186.479,247.762    187.648,248.274 188.902,248.709 190.24,249.104 191.617,249.538 192.996,250.013 194.336,250.527 195.59,251.197 196.76,252.026    197.803,253.015 198.68,254.238 199.352,255.739 199.77,257.52 199.936,259.65 199.77,262.139 199.77,262.139 199.475,263.995    198.975,265.614 198.305,267.115 197.471,268.419 196.508,269.564 195.422,270.551 194.25,271.421 192.955,272.172    191.617,272.764 190.24,273.277 188.818,273.671 187.357,273.986 185.936,274.225 184.557,274.344 183.178,274.423    181.881,274.462 181.881,274.462 180.082,274.462 178.412,274.423 176.949,274.423 175.57,274.382 174.318,274.344    173.189,274.264 172.188,274.188 171.223,274.066 170.346,273.986 169.553,273.831 168.76,273.712 168.047,273.516    167.338,273.355 166.668,273.12 166,272.883 165.289,272.645 167.17,263.917 167.17,263.917 167.547,263.995 168.008,264.113    168.59,264.271 169.301,264.43 170.055,264.587 170.891,264.746 171.811,264.941 172.813,265.102 173.857,265.259 174.945,265.416    176.072,265.536 177.244,265.654 178.453,265.693 179.666,265.732 180.879,265.732 182.09,265.693 182.09,265.693 183.303,265.457    184.262,265.141 185.016,264.705 185.6,264.152 186.018,263.602 186.354,262.968 186.563,262.336 186.73,261.744 186.73,261.744    186.813,260.6 186.436,259.611 185.727,258.82 184.682,258.148 183.428,257.557 181.965,256.965 180.334,256.411 178.703,255.78    177.033,255.069 175.445,254.238 173.982,253.211 172.645,251.987 171.6,250.486 170.848,248.709 170.471,246.575 170.514,244.048    170.514,244.048 170.723,242.508 171.016,241.046 171.436,239.704 171.934,238.439 172.602,237.255 173.355,236.228    174.234,235.24 175.277,234.372 176.492,233.621 177.828,232.989 179.33,232.396 181.004,231.962 182.885,231.606 184.932,231.329    187.188,231.172 189.656,231.132 189.656,231.132 191.201,231.132 192.621,231.172 193.918,231.211 195.09,231.251    196.133,231.329 197.094,231.409 197.928,231.488 198.68,231.566 199.393,231.646 199.977,231.764 200.521,231.843    201.023,231.922 201.439,232.001 201.818,232.04 202.191,232.12 202.527,232.16 200.396,241.086  "
         stroke-miterlimit="2.6131"
         style="fill:none;stroke:#ffffff;stroke-width:0.21600001;stroke-miterlimit:2.61310005" />
      <polygon
         id="polygon34"
         points="202.232,269.84 202.107,269.091 202.066,268.262 202.066,267.391 202.191,266.484 202.316,265.496 210.301,222.403 221.877,222.403 220.162,231.962 227.143,231.962 225.637,240.888 218.283,240.691 214.27,262.73 214.229,263.521 214.438,264.191 214.857,264.705 215.398,265.141 216.15,265.416 216.988,265.654 217.904,265.813 218.908,265.891 219.828,265.852 220.664,265.771 221.418,265.654 222.084,265.496 222.629,265.339 223.004,265.221 223.256,265.141 223.34,265.102 221.877,272.448 221.584,272.645 221.291,272.805 220.998,272.961 220.705,273.12 220.414,273.238 220.078,273.355 219.703,273.477 219.326,273.594 218.908,273.712 218.492,273.79 217.99,273.87 217.488,273.949 216.945,274.027 216.318,274.105 215.648,274.188 214.939,274.264 211.762,274.264 210.09,274.146 208.629,273.986 207.289,273.751 206.162,273.477 205.201,273.12 204.406,272.725 203.695,272.25 203.152,271.736 202.736,271.186 202.441,270.512 "
         style="fill:#ffffff" />
      <polyline
         id="polyline36"
         points="210.301,222.403 221.877,222.403    220.162,231.962 227.143,231.962 225.637,240.888 218.283,240.691 214.27,262.73 214.27,262.73 214.229,263.521 214.438,264.191    214.857,264.705 215.398,265.141 216.15,265.416 216.988,265.654 217.904,265.813 218.908,265.891 218.908,265.891    219.828,265.852 220.664,265.771 221.418,265.654 222.084,265.496 222.629,265.339 223.004,265.221 223.256,265.141    223.34,265.102 221.877,272.448 221.877,272.448 221.584,272.645 221.291,272.805 220.998,272.961 220.705,273.12 220.414,273.238    220.078,273.355 219.703,273.477 219.326,273.594 218.908,273.712 218.492,273.79 217.99,273.87 217.488,273.949 216.945,274.027    216.318,274.105 215.648,274.188 214.939,274.264 211.762,274.264 211.762,274.264 210.09,274.146 208.629,273.986    207.289,273.751 206.162,273.477 205.201,273.12 204.406,272.725 203.695,272.25 203.152,271.736 202.736,271.186 202.441,270.512    202.232,269.84 202.107,269.091 202.066,268.262 202.066,267.391 202.191,266.484 202.316,265.496 210.301,222.403  "
         stroke-miterlimit="2.6131"
         style="fill:none;stroke:#ffffff;stroke-width:0.21600001;stroke-miterlimit:2.61310005" />
      <polygon
         id="polygon38"
         points="242.563,274.027 240.473,273.751 238.385,273.277 236.338,272.686 234.371,271.934 232.492,270.947 230.736,269.802 229.107,268.459 227.686,266.84 226.475,265.021 225.471,262.93 224.758,260.6 224.301,257.951 224.176,255.028 224.385,251.789 224.551,250.527 224.803,249.065 225.135,247.524 225.598,245.864 226.225,244.167 226.977,242.468 227.936,240.731 229.107,239.071 230.441,237.491 232.074,235.99 233.912,234.647 236.002,233.463 238.424,232.476 241.143,231.764 244.15,231.29 247.535,231.132 249.164,231.172 250.881,231.329 252.592,231.606 254.309,232.001 255.979,232.594 257.609,233.305 259.113,234.252 260.492,235.358 261.746,236.702 262.789,238.282 263.625,240.099 264.211,242.192 264.547,244.562 264.588,247.247 264.295,250.249 263.668,253.568 263.459,255.977 236.335,256 237.916,248.194 253.219,248.194 253.305,247.208 253.262,246.261 253.178,245.391 253.012,244.603 252.717,243.851 252.426,243.179 252.008,242.586 251.59,242.034 251.088,241.561 250.545,241.165 249.918,240.81 249.293,240.493 248.625,240.256 247.955,240.099 247.244,239.98 246.492,239.9 245.699,239.94 244.947,240.059 244.232,240.217 243.525,240.454 242.814,240.77 242.188,241.126 241.561,241.561 241.018,242.034 240.473,242.586 239.973,243.179 239.512,243.811 239.139,244.483 238.76,245.194 238.469,245.985 238.217,246.773 238.049,247.603 236.377,255.78 236.25,256.45 236.213,257.161 236.295,257.913 236.463,258.662 236.754,259.413 237.09,260.124 237.547,260.874 238.049,261.546 238.635,262.218 239.264,262.811 239.932,263.402 240.684,263.876 241.436,264.313 242.271,264.667 243.105,264.941 243.943,265.102 245.029,265.259 246.074,265.377 247.16,265.496 248.246,265.575 249.334,265.614 250.461,265.614 251.549,265.575 252.678,265.496 253.807,265.339 254.936,265.141 256.104,264.902 257.234,264.548 258.4,264.113 259.613,263.641 260.783,263.008 261.996,262.336 260.324,272.052 259.656,272.368 258.988,272.686 258.318,272.922 257.691,273.159 257.066,273.355 256.396,273.553 255.727,273.712 255.016,273.831 254.266,273.949 253.43,274.027 252.553,274.105 251.59,274.188 250.506,274.225 249.377,274.225 248.08,274.264 246.701,274.264 244.652,274.225 "
         style="fill:#ffffff" />
      <polyline
         id="polyline40"
         points="236.377,255.78 236.377,255.78    236.25,256.45 236.213,257.161 236.295,257.913 236.463,258.662 236.754,259.413 237.09,260.124 237.547,260.874 238.049,261.546    238.635,262.218 239.264,262.811 239.932,263.402 240.684,263.876 241.436,264.313 242.271,264.667 243.105,264.941    243.943,265.102 243.943,265.102 245.029,265.259 246.074,265.377 247.16,265.496 248.246,265.575 249.334,265.614    250.461,265.614 251.549,265.575 252.678,265.496 253.807,265.339 254.936,265.141 256.104,264.902 257.234,264.548 258.4,264.113    259.613,263.641 260.783,263.008 261.996,262.336 260.324,272.052 260.324,272.052 259.656,272.368 258.988,272.686    258.318,272.922 257.691,273.159 257.066,273.355 256.396,273.553 255.727,273.712 255.016,273.831 254.266,273.949    253.43,274.027 252.553,274.105 251.59,274.188 250.506,274.225 249.377,274.225 248.08,274.264 246.701,274.264 246.701,274.264    244.652,274.225 242.563,274.027 240.473,273.751 238.385,273.277 236.338,272.686 234.371,271.934 232.492,270.947    230.736,269.802 229.107,268.459 227.686,266.84 226.475,265.021 225.471,262.93 224.758,260.6 224.301,257.951 224.176,255.028    224.385,251.789 224.385,251.789 224.551,250.527 224.803,249.065 225.135,247.524 225.598,245.864 226.225,244.167    226.977,242.468 227.936,240.731 229.107,239.071 230.441,237.491 232.074,235.99 233.912,234.647 236.002,233.463    238.424,232.476 241.143,231.764 244.15,231.29 247.535,231.132 247.535,231.132 249.164,231.172 250.881,231.329 252.592,231.606    254.309,232.001 255.979,232.594 257.609,233.305 259.113,234.252 260.492,235.358 261.746,236.702 262.789,238.282    263.625,240.099 264.211,242.192 264.547,244.562 264.588,247.247 264.295,250.249 263.668,253.568 263.459,255.977    236.377,255.78 237.916,248.194 253.219,248.194 253.219,248.194 253.305,247.208 253.262,246.261 253.178,245.391    253.012,244.603 252.717,243.851 252.426,243.179 252.008,242.586 251.59,242.034 251.088,241.561 250.545,241.165 249.918,240.81    249.293,240.493 248.625,240.256 247.955,240.099 247.244,239.98 246.492,239.9 246.492,239.9 245.699,239.94 244.947,240.059    244.232,240.217 243.525,240.454 242.814,240.77 242.188,241.126 241.561,241.561 241.018,242.034 240.473,242.586    239.973,243.179 239.512,243.811 239.139,244.483 238.76,245.194 238.469,245.985 238.217,246.773 238.049,247.603 236.377,255.78     "
         stroke-miterlimit="2.6131"
         style="fill:none;stroke:#ffffff;stroke-width:0.21600001;stroke-miterlimit:2.61310005" />
      <polygon
         id="polygon42"
         points="318.414,263.837 319.252,263.917 320.17,263.995 321.131,263.995 322.178,263.995 323.221,263.917 324.309,263.797 325.395,263.602 326.439,263.325 327.484,263.008 328.529,262.573 329.49,262.059 330.367,261.428 331.203,260.717 329.324,271.264 329.072,271.46 328.822,271.695 328.488,271.975 328.111,272.211 327.65,272.527 327.064,272.805 326.398,273.079 325.645,273.316 324.684,273.594 323.598,273.79 322.344,273.949 320.881,274.105 319.252,274.188 317.371,274.225 315.238,274.188 312.898,274.066 310.977,273.87 309.053,273.477 307.133,272.883 305.209,272.093 303.371,271.145 301.615,269.958 299.943,268.577 298.398,266.997 297.018,265.221 295.848,263.245 294.846,261.033 294.094,258.623 293.592,255.977 293.424,253.172 293.508,250.092 293.969,246.814 294.301,245.194 294.676,243.614 295.096,242.073 295.514,240.612 295.973,239.229 296.516,237.847 297.061,236.544 297.645,235.319 298.273,234.094 298.9,232.95 299.609,231.843 300.359,230.815 301.111,229.829 301.951,228.881 302.785,228.012 303.662,227.183 304.623,226.393 305.586,225.642 306.588,224.971 307.635,224.339 308.762,223.745 309.891,223.233 311.059,222.759 312.271,222.323 313.568,221.929 314.863,221.612 316.199,221.337 317.623,221.099 319.041,220.901 320.549,220.744 322.053,220.665 323.641,220.626 324.979,220.665 326.273,220.744 327.525,220.861 328.779,221.021 329.951,221.179 331.078,221.415 332.166,221.612 333.168,221.85 334.129,222.087 334.965,222.323 335.76,222.561 336.43,222.798 337.012,222.995 337.514,223.153 337.891,223.312 338.141,223.391 336.051,234.332 335.508,234.055 334.965,233.818 334.381,233.542 333.754,233.265 333.127,233.028 332.416,232.791 331.705,232.554 330.953,232.317 330.16,232.12 329.365,231.962 328.488,231.804 327.609,231.686 326.648,231.606 325.686,231.528 324.684,231.528 323.641,231.528 322.596,231.528 321.508,231.606 320.379,231.726 319.211,231.922 318.039,232.238 316.871,232.673 315.699,233.226 314.527,233.937 313.402,234.806 312.314,235.832 311.27,237.097 310.266,238.558 309.348,240.296 308.469,242.271 307.676,244.483 307.008,247.011 306.756,248.432 306.588,249.814 306.504,251.197 306.547,252.541 306.672,253.883 306.965,255.147 307.34,256.331 307.801,257.52 308.428,258.585 309.18,259.611 310.057,260.52 311.059,261.348 312.189,262.059 313.484,262.652 314.906,263.165 316.494,263.521 317.037,263.641 317.662,263.758 "
         style="fill:#ffffff" />
      <polyline
         id="polyline44"
         points="336.051,234.332 336.051,234.332    335.508,234.055 334.965,233.818 334.381,233.542 333.754,233.265 333.127,233.028 332.416,232.791 331.705,232.554    330.953,232.317 330.16,232.12 329.365,231.962 328.488,231.804 327.609,231.686 326.648,231.606 325.686,231.528 324.684,231.528    323.641,231.528 323.641,231.528 322.596,231.528 321.508,231.606 320.379,231.726 319.211,231.922 318.039,232.238    316.871,232.673 315.699,233.226 314.527,233.937 313.402,234.806 312.314,235.832 311.27,237.097 310.266,238.558    309.348,240.296 308.469,242.271 307.676,244.483 307.008,247.011 307.008,247.011 306.756,248.432 306.588,249.814    306.504,251.197 306.547,252.541 306.672,253.883 306.965,255.147 307.34,256.331 307.801,257.52 308.428,258.585 309.18,259.611    310.057,260.52 311.059,261.348 312.189,262.059 313.484,262.652 314.906,263.165 316.494,263.521 316.494,263.521    317.037,263.641 317.662,263.758 318.414,263.837 319.252,263.917 320.17,263.995 321.131,263.995 322.178,263.995    323.221,263.917 324.309,263.797 325.395,263.602 326.439,263.325 327.484,263.008 328.529,262.573 329.49,262.059    330.367,261.428 331.203,260.717 329.324,271.264 329.324,271.264 329.072,271.46 328.822,271.695 328.488,271.975    328.111,272.211 327.65,272.527 327.064,272.805 326.398,273.079 325.645,273.316 324.684,273.594 323.598,273.79 322.344,273.949    320.881,274.105 319.252,274.188 317.371,274.225 315.238,274.188 312.898,274.066 312.898,274.066 310.977,273.87    309.053,273.477 307.133,272.883 305.209,272.093 303.371,271.145 301.615,269.958 299.943,268.577 298.398,266.997    297.018,265.221 295.848,263.245 294.846,261.033 294.094,258.623 293.592,255.977 293.424,253.172 293.508,250.092    293.969,246.814 293.969,246.814 294.301,245.194 294.676,243.614 295.096,242.073 295.514,240.612 295.973,239.229    296.516,237.847 297.061,236.544 297.645,235.319 298.273,234.094 298.9,232.95 299.609,231.843 300.359,230.815 301.111,229.829    301.951,228.881 302.785,228.012 303.662,227.183 304.623,226.393 305.586,225.642 306.588,224.971 307.635,224.339    308.762,223.745 309.891,223.233 311.059,222.759 312.271,222.323 313.568,221.929 314.863,221.612 316.199,221.337    317.623,221.099 319.041,220.901 320.549,220.744 322.053,220.665 323.641,220.626 323.641,220.626 324.979,220.665    326.273,220.744 327.525,220.861 328.779,221.021 329.951,221.179 331.078,221.415 332.166,221.612 333.168,221.85    334.129,222.087 334.965,222.323 335.76,222.561 336.43,222.798 337.012,222.995 337.514,223.153 337.891,223.312 338.141,223.391    336.051,234.332  "
         stroke-miterlimit="2.6131"
         style="fill:none;stroke:#ffffff;stroke-width:0.21600001;stroke-miterlimit:2.61310005" />
      <polygon
         id="polygon46"
         points="422.52,231.962 423.732,232.001 424.9,232.12 425.988,232.317 426.99,232.594 427.953,232.91 428.789,233.265 429.625,233.7 430.377,234.134 431.045,234.608 431.672,235.121 432.213,235.635 432.717,236.148 433.135,236.662 433.51,237.175 433.846,237.649 434.096,238.124 434.096,238.124 437.021,222.601 448.389,222.601 438.943,274.264 427.367,274.264 428.203,269.881 428.203,269.484 427.533,270.275 426.824,270.984 426.113,271.619 425.361,272.172 424.609,272.686 423.857,273.12 423.105,273.477 422.311,273.831 421.518,274.105 420.723,274.305 419.93,274.503 419.092,274.621 418.256,274.739 417.463,274.816 416.627,274.857 415.791,274.857 413.619,274.699 411.611,274.264 409.771,273.594 408.102,272.686 406.596,271.539 405.258,270.197 404.088,268.734 403.086,267.077 402.25,265.298 401.582,263.443 401.121,261.507 400.787,259.493 400.662,257.479 400.705,255.423 400.912,253.409 401.291,251.396 401.916,249.065 402.67,246.853 403.547,244.839 404.59,242.942 405.678,241.165 406.93,239.585 408.227,238.163 409.605,236.859 411.068,235.714 412.613,234.726 414.205,233.858 415.791,233.187 417.463,232.633 419.133,232.278 420.807,232.04 "
         style="fill:#ffffff" />
      <polyline
         id="polyline48"
         points="438.943,274.264 427.367,274.264    428.203,269.881 428.203,269.484 428.203,269.484 427.533,270.275 426.824,270.984 426.113,271.619 425.361,272.172    424.609,272.686 423.857,273.12 423.105,273.477 422.311,273.831 421.518,274.105 420.723,274.305 419.93,274.503 419.092,274.621    418.256,274.739 417.463,274.816 416.627,274.857 415.791,274.857 415.791,274.857 413.619,274.699 411.611,274.264    409.771,273.594 408.102,272.686 406.596,271.539 405.258,270.197 404.088,268.734 403.086,267.077 402.25,265.298    401.582,263.443 401.121,261.507 400.787,259.493 400.662,257.479 400.705,255.423 400.912,253.409 401.291,251.396    401.291,251.396 401.916,249.065 402.67,246.853 403.547,244.839 404.59,242.942 405.678,241.165 406.93,239.585 408.227,238.163    409.605,236.859 411.068,235.714 412.613,234.726 414.205,233.858 415.791,233.187 417.463,232.633 419.133,232.278    420.807,232.04 422.52,231.962 422.52,231.962 423.732,232.001 424.9,232.12 425.988,232.317 426.99,232.594 427.953,232.91    428.789,233.265 429.625,233.7 430.377,234.134 431.045,234.608 431.672,235.121 432.213,235.635 432.717,236.148 433.135,236.662    433.51,237.175 433.846,237.649 434.096,238.124 434.096,238.124 437.021,222.601 448.389,222.601 438.943,274.264  "
         stroke-miterlimit="2.6131"
         style="fill:none;stroke:#ffffff;stroke-width:0.21600001;stroke-miterlimit:2.61310005" />
      <polygon
         id="polygon50"
         points="414.496,258.741 415.039,260.6 415.875,262.218 416.961,263.521 418.34,264.391 420.014,264.705 421.182,264.628 422.27,264.391 423.271,264.113 424.232,263.68 425.111,263.204 425.947,262.611 426.74,261.941 427.451,261.229 428.078,260.439 428.664,259.57 429.205,258.662 429.666,257.715 430.084,256.729 430.418,255.7 430.709,254.634 430.92,253.568 431.129,252.461 431.254,251.315 431.254,250.249 431.211,249.145 431.088,248.117 430.92,247.129 430.627,246.181 430.293,245.272 429.875,244.483 429.375,243.731 428.83,243.1 428.203,242.548 427.492,242.073 426.74,241.757 425.947,241.561 425.07,241.48 423.939,241.561 422.896,241.718 421.934,242.034 420.973,242.429 420.137,242.942 419.302,243.575 418.592,244.247 417.881,244.996 417.254,245.864 416.668,246.773 416.125,247.721 415.666,248.748 415.248,249.814 414.914,250.88 414.578,252.026 414.33,253.172 414.121,254.91 414.205,256.807 "
         style="fill:#fbb231" />
      <polygon
         id="polygon52"
         points="135.951,249.026 137.33,248.591 138.752,248.235 140.213,247.999 140.299,247.999 140.508,247.958 140.801,247.919 141.26,247.88 141.76,247.8 142.346,247.762 142.973,247.683 143.684,247.603 144.395,247.524 145.105,247.445 145.857,247.406 146.525,247.327 147.193,247.288 147.818,247.247 148.404,247.208 148.865,247.208 149.828,247.208 150.83,247.247 151.748,247.288 152.668,247.288 153.422,247.327 154.006,247.365 154.424,247.406 154.549,247.406 154.633,247.129 154.885,246.418 155.094,245.589 155.176,244.839 155.01,243.969 154.633,243.179 154.133,242.468 153.465,241.876 152.668,241.362 151.791,241.007 150.789,240.77 149.699,240.691 148.533,240.651 147.277,240.612 145.982,240.612 144.643,240.651 143.264,240.731 141.93,240.849 140.592,240.967 139.295,241.126 138.041,241.283 136.83,241.48 135.744,241.679 134.742,241.876 133.821,242.113 133.07,242.35 132.484,242.626 132.023,242.862 134.993,233.344 135.908,232.989 136.83,232.673 137.832,232.396 138.834,232.198 139.838,232.001 140.926,231.843 142.012,231.686 143.139,231.606 144.311,231.528 145.52,231.488 146.775,231.448 148.07,231.448 149.41,231.448 150.789,231.448 152.25,231.488 153.713,231.528 154.885,231.606 156.137,231.804 157.432,232.08 158.771,232.436 160.066,232.91 161.32,233.463 162.574,234.134 163.744,234.884 164.787,235.753 165.709,236.702 166.543,237.769 167.17,238.953 167.588,240.217 167.84,241.561 167.84,243.062 167.588,244.642 163.365,265.496 161.695,274.264 151.164,274.264 151.457,272.645 151.666,271.186 151.832,270.079 151.998,269.484 151.416,270.118 150.746,270.749 149.953,271.341 149.076,271.895 148.07,272.448 147.025,272.922 145.939,273.396 144.811,273.79 143.6,274.146 142.387,274.423 141.178,274.66 139.924,274.816 138.709,274.896 137.5,274.936 136.328,274.816 135.2,274.66 133.737,274.305 132.399,273.91 131.23,273.396 130.186,272.805 129.266,272.172 128.429,271.46 127.761,270.71 127.173,269.919 126.673,269.091 126.257,268.221 125.921,267.354 125.67,266.484 125.503,265.575 125.378,264.667 125.294,263.797 125.294,262.93 125.418,261.389 125.67,259.927 126.089,258.544 126.631,257.202 127.299,255.938 128.053,254.792 128.93,253.687 129.936,252.698 130.979,251.789 132.148,250.96 133.361,250.211 134.615,249.577 "
         style="fill:#ffffff" />
      <polyline
         id="polyline54"
         points="163.365,265.496 161.695,274.264    151.164,274.264 151.164,274.264 151.457,272.645 151.666,271.186 151.832,270.079 151.998,269.484 151.998,269.484    151.416,270.118 150.746,270.749 149.953,271.341 149.076,271.895 148.07,272.448 147.025,272.922 145.939,273.396 144.811,273.79    143.6,274.146 142.387,274.423 141.178,274.66 139.924,274.816 138.709,274.896 137.5,274.936 136.328,274.816 135.2,274.66    135.2,274.66 133.737,274.305 132.399,273.91 131.23,273.396 130.186,272.805 129.266,272.172 128.429,271.46 127.761,270.71    127.173,269.919 126.673,269.091 126.257,268.221 125.921,267.354 125.67,266.484 125.503,265.575 125.378,264.667    125.294,263.797 125.294,262.93 125.294,262.93 125.418,261.389 125.67,259.927 126.089,258.544 126.631,257.202 127.299,255.938    128.053,254.792 128.93,253.687 129.936,252.698 130.979,251.789 132.148,250.96 133.361,250.211 134.615,249.577 135.951,249.026    137.33,248.591 138.752,248.235 140.213,247.999 140.213,247.999 140.299,247.999 140.508,247.958 140.801,247.919 141.26,247.88    141.76,247.8 142.346,247.762 142.973,247.683 143.684,247.603 144.395,247.524 145.105,247.445 145.857,247.406 146.525,247.327    147.193,247.288 147.818,247.247 148.404,247.208 148.865,247.208 148.865,247.208 149.828,247.208 150.83,247.247    151.748,247.288 152.668,247.288 153.422,247.327 154.006,247.365 154.424,247.406 154.549,247.406 154.549,247.406    154.633,247.129 154.885,246.418 155.094,245.589 155.176,244.839 155.176,244.839 155.01,243.969 154.633,243.179    154.133,242.468 153.465,241.876 152.668,241.362 151.791,241.007 150.789,240.77 149.699,240.691 149.699,240.691    148.533,240.651 147.277,240.612 145.982,240.612 144.643,240.651 143.264,240.731 141.93,240.849 140.592,240.967    139.295,241.126 138.041,241.283 136.83,241.48 135.744,241.679 134.742,241.876 133.821,242.113 133.07,242.35 132.484,242.626    132.023,242.862 134.993,233.344 134.993,233.344 135.908,232.989 136.83,232.673 137.832,232.396 138.834,232.198    139.838,232.001 140.926,231.843 142.012,231.686 143.139,231.606 144.311,231.528 145.52,231.488 146.775,231.448 148.07,231.448    149.41,231.448 150.789,231.448 152.25,231.488 153.713,231.528 153.713,231.528 154.885,231.606 156.137,231.804 157.432,232.08    158.771,232.436 160.066,232.91 161.32,233.463 162.574,234.134 163.744,234.884 164.787,235.753 165.709,236.702 166.543,237.769    167.17,238.953 167.588,240.217 167.84,241.561 167.84,243.062 167.588,244.642 163.365,265.496  "
         stroke-miterlimit="2.6131"
         style="fill:none;stroke:#ffffff;stroke-width:0.21600001;stroke-miterlimit:2.61310005" />
      <polygon
         id="polygon56"
         points="150.996,262.218 151.332,261.744 151.623,261.271 151.875,260.796 152.084,260.361 152.209,259.927 152.543,258.782 152.836,257.479 153.086,256.214 153.295,255.188 153.252,254.99 153.086,254.792 152.836,254.673 152.418,254.594 151.959,254.517 151.416,254.475 150.789,254.475 150.162,254.475 149.492,254.517 148.781,254.594 148.113,254.673 147.443,254.753 146.816,254.831 146.234,254.951 145.732,255.069 145.271,255.188 144.979,255.266 144.643,255.384 144.186,255.543 143.727,255.739 143.182,255.977 142.639,256.254 142.055,256.529 141.51,256.848 140.926,257.24 140.381,257.635 139.881,258.109 139.42,258.585 139.002,259.098 138.709,259.65 138.459,260.282 138.332,260.915 138.293,262.257 138.502,263.325 138.92,264.113 139.461,264.705 140.088,265.102 140.801,265.339 141.469,265.457 142.137,265.496 143.391,265.457 144.518,265.339 145.607,265.18 146.566,264.941 147.402,264.667 148.195,264.313 148.906,263.956 149.535,263.521 150.078,263.127 150.58,262.652 "
         style="fill:#ec1c2e" />
      <polygon
         id="polygon58"
         points="73.556,222.403 93.325,222.403 95.205,253.172 108.871,222.403 129.516,222.403 119.82,274.264 108.452,274.264 115.64,235.517 115.18,235.517 98.171,274.264 85.341,274.264 85.257,272.645 84.965,268.339 84.59,262.218 84.17,255.188 83.754,248.117 83.378,241.915 83.086,237.413 83.001,235.517 82.875,235.517 82.625,235.517 82.375,235.517 75.436,274.264 64.07,274.264 "
         style="fill:#ffffff" />
      <polyline
         id="polyline60"
         points="75.436,274.264 64.07,274.264    73.556,222.403 93.325,222.403 95.205,253.172 108.871,222.403 129.516,222.403 119.82,274.264 108.452,274.264 115.64,235.517    115.18,235.517 98.171,274.264 85.341,274.264 85.341,274.264 85.257,272.645 84.965,268.339 84.59,262.218 84.17,255.188    83.754,248.117 83.378,241.915 83.086,237.413 83.001,235.517 83.001,235.517 82.875,235.517 82.625,235.517 82.375,235.517    82.375,235.517 75.436,274.264  "
         stroke-miterlimit="2.6131"
         style="fill:none;stroke:#ffffff;stroke-width:0.21600001;stroke-miterlimit:2.61310005" />
      <polygon
         id="polygon62"
         points="343.449,249.026 344.828,248.591 346.207,248.235 347.629,247.999 347.711,247.999 347.922,247.958 348.213,247.919 348.633,247.88 349.174,247.8 349.76,247.762 350.387,247.683 351.055,247.603 351.766,247.524 352.518,247.445 353.229,247.406 353.939,247.327 354.607,247.288 355.193,247.247 355.777,247.208 356.238,247.208 357.242,247.208 358.244,247.247 359.203,247.288 360.123,247.288 360.92,247.327 361.588,247.365 361.963,247.406 362.131,247.406 362.213,247.129 362.338,246.418 362.465,245.589 362.549,244.839 362.381,243.969 362.047,243.179 361.502,242.468 360.875,241.876 360.123,241.362 359.246,241.007 358.326,240.77 357.324,240.691 356.154,240.651 354.9,240.612 353.604,240.612 352.266,240.651 350.889,240.731 349.551,240.849 348.213,240.967 346.918,241.126 345.662,241.283 344.453,241.48 343.365,241.679 342.363,241.876 341.443,242.113 340.691,242.35 340.105,242.626 339.646,242.862 342.572,233.344 343.49,232.989 344.453,232.673 345.412,232.396 346.418,232.198 347.461,232.001 348.506,231.843 349.592,231.686 350.721,231.606 351.891,231.528 353.104,231.488 354.314,231.448 355.609,231.448 356.906,231.448 358.244,231.448 359.664,231.488 361.086,231.528 362.254,231.606 363.51,231.804 364.805,232.08 366.143,232.436 367.438,232.91 368.732,233.463 369.986,234.134 371.158,234.884 372.201,235.753 373.162,236.702 374,237.769 374.625,238.953 375.086,240.217 375.377,241.561 375.377,243.062 375.168,244.642 370.781,265.496 369.068,274.264 358.578,274.264 358.66,272.645 358.705,271.223 358.705,270.156 358.787,269.684 358.244,270.275 357.617,270.867 356.865,271.421 356.029,271.975 355.152,272.486 354.146,272.961 353.104,273.436 352.059,273.831 350.93,274.146 349.76,274.462 348.588,274.66 347.42,274.816 346.207,274.896 345.037,274.936 343.908,274.816 342.779,274.66 341.275,274.305 339.938,273.91 338.77,273.396 337.682,272.805 336.762,272.172 335.969,271.46 335.299,270.71 334.715,269.919 334.213,269.091 333.838,268.221 333.504,267.354 333.293,266.484 333.127,265.575 333.002,264.667 332.918,263.797 332.918,262.93 333.002,261.389 333.252,259.927 333.629,258.544 334.17,257.202 334.797,255.938 335.592,254.792 336.471,253.687 337.432,252.698 338.52,251.789 339.646,250.96 340.857,250.211 342.152,249.577 "
         style="fill:#ffffff" />
      <polygon
         id="polygon64"
         points="369.068,274.542 369.275,274.503 369.318,274.305 369.068,274.542 369.318,274.305 371.031,265.536 370.531,265.457 368.816,274.225 369.068,273.986 "
         style="fill:#ffffff" />
      <polygon
         id="polygon66"
         points="358.326,274.264 358.285,274.542 358.578,274.542 358.326,274.264 358.578,274.542 369.068,274.542 369.068,273.986 358.578,273.986 358.826,274.264 "
         style="fill:#ffffff" />
      <polygon
         id="polygon68"
         points="358.41,271.223 358.41,272.645 358.326,274.264 358.826,274.264 358.912,272.645 358.996,271.223 358.953,270.156 358.953,269.84 358.578,269.525 358.996,269.84 358.619,269.525 358.451,270.156 "
         style="fill:#ffffff" />
      <polygon
         id="polygon70"
         points="358.451,270.434 358.996,269.84 358.578,269.525 358.035,270.118 357.449,270.671 356.697,271.223 355.904,271.775 355.027,272.25 354.021,272.725 353.018,273.197 351.975,273.594 350.889,273.91 349.717,274.225 348.549,274.423 347.42,274.581 346.207,274.66 345.037,274.699 343.908,274.581 342.824,274.423 342.74,274.896 343.908,275.055 345.037,275.173 346.207,275.134 347.42,275.055 348.633,274.896 349.801,274.699 350.973,274.382 352.143,274.066 353.188,273.671 354.271,273.197 355.275,272.725 356.154,272.172 357.031,271.619 357.783,271.064 "
         style="fill:#ffffff" />
      <polygon
         id="polygon72"
         points="341.234,274.542 342.74,274.896 342.824,274.423 341.316,274.066 340.021,273.671 338.895,273.159 337.807,272.605 336.928,271.975 336.176,271.302 335.508,270.551 334.922,269.802 334.465,268.973 334.088,268.143 333.754,267.313 333.545,266.443 333.377,265.536 333.252,264.667 333.168,263.797 333.209,262.93 332.625,262.93 332.666,263.797 332.75,264.667 332.873,265.614 333.043,266.523 333.252,267.391 333.586,268.3 333.963,269.209 334.506,270.038 335.092,270.867 335.76,271.619 336.596,272.368 337.557,273.002 338.645,273.633 339.854,274.146 "
         style="fill:#ffffff" />
      <polygon
         id="polygon74"
         points="332.75,261.389 332.625,262.93 333.209,262.93 333.252,261.389 333.504,259.965 333.879,258.623 334.422,257.281 335.049,256.056 335.801,254.951 336.678,253.844 337.598,252.857 338.686,251.987 339.813,251.158 340.982,250.447 342.279,249.814 343.531,249.263 344.91,248.828 346.248,248.473 347.629,248.235 347.629,247.762 346.166,247.999 344.744,248.354 343.365,248.787 342.027,249.341 340.73,249.974 339.479,250.763 338.35,251.594 337.264,252.541 336.26,253.527 335.383,254.634 334.547,255.818 333.92,257.122 333.377,258.466 333.002,259.889 "
         style="fill:#ffffff" />
      <polygon
         id="polygon76"
         points="347.711,247.762 347.629,247.762 347.629,248.235 347.711,248.235 347.961,248.194 348.213,248.156 348.633,248.117 349.174,248.037 349.76,247.999 350.387,247.919 351.055,247.84 351.766,247.762 352.518,247.683 353.229,247.644 353.939,247.563 354.607,247.524 355.193,247.483 355.777,247.483 356.238,247.483 356.238,246.933 355.777,246.933 355.193,247.011 354.607,247.051 353.939,247.09 353.229,247.167 352.518,247.208 351.766,247.288 351.055,247.365 350.387,247.445 349.76,247.524 349.174,247.563 348.633,247.644 348.213,247.683 347.877,247.721 "
         style="fill:#ffffff" />
      <polygon
         id="polygon78"
         points="360.123,247.011 359.203,247.011 358.244,247.011 357.242,246.933 356.238,246.933 356.238,247.483 357.242,247.483 358.244,247.483 359.203,247.563 360.123,247.563 360.92,247.563 361.588,247.603 361.963,247.644 362.131,247.644 362.381,247.445 362.131,247.644 362.338,247.683 362.381,247.445 361.879,247.365 362.131,247.167 361.963,247.167 361.588,247.129 360.92,247.09 "
         style="fill:#ffffff" />
      <polygon
         id="polygon80"
         points="362.088,246.379 361.963,247.09 361.879,247.365 362.381,247.445 362.465,247.167 362.59,246.456 362.715,245.589 362.84,244.839 362.799,244.839 362.297,244.839 362.254,244.839 362.213,245.589 "
         style="fill:#ffffff" />
      <polygon
         id="polygon82"
         points="362.631,243.931 362.297,243.062 361.713,242.311 361.045,241.679 360.25,241.126 359.33,240.77 358.369,240.532 357.324,240.414 357.324,240.454 357.324,240.928 357.324,240.967 358.285,241.007 359.162,241.245 359.998,241.599 360.709,242.073 361.293,242.626 361.797,243.298 362.131,244.009 362.297,244.839 362.799,244.839 "
         style="fill:#ffffff" />
      <polygon
         id="polygon84"
         points="354.9,240.888 356.154,240.888 357.324,240.928 357.324,240.454 356.154,240.414 354.9,240.336 353.604,240.336 352.266,240.414 350.889,240.493 349.551,240.612 348.213,240.731 346.918,240.888 345.621,241.046 344.41,241.245 343.324,241.441 342.32,241.639 341.4,241.876 340.605,242.113 339.979,242.39 339.479,242.666 339.896,242.902 339.396,242.824 339.813,243.062 340.23,242.862 340.775,242.586 341.484,242.35 342.404,242.113 343.406,241.915 344.494,241.718 345.707,241.521 346.918,241.362 348.213,241.204 349.551,241.086 350.889,240.967 352.266,240.888 353.604,240.888 "
         style="fill:#ffffff" />
      <polygon
         id="polygon86"
         points="342.488,233.107 342.363,233.146 342.32,233.305 342.488,233.107 342.32,233.305 339.396,242.824 339.896,242.902 342.824,233.384 342.654,233.581 "
         style="fill:#ffffff" />
      <polygon
         id="polygon88"
         points="343.406,232.751 342.488,233.107 342.654,233.581 343.576,233.226 344.535,232.91 345.455,232.633 346.457,232.436 347.504,232.238 348.549,232.08 349.592,231.922 350.721,231.843 351.891,231.764 353.104,231.726 354.314,231.726 355.609,231.726 356.906,231.726 358.244,231.726 359.664,231.764 361.086,231.764 361.086,231.29 359.664,231.211 358.244,231.172 356.906,231.172 355.609,231.172 354.314,231.172 353.104,231.251 351.891,231.29 350.721,231.369 349.592,231.448 348.463,231.606 347.42,231.764 346.373,231.962 345.371,232.16 344.369,232.436 "
         style="fill:#ffffff" />
      <polygon
         id="polygon90"
         points="362.254,231.369 361.086,231.29 361.086,231.764 362.254,231.843 363.467,232.04 364.764,232.317 366.059,232.673 367.354,233.146 368.607,233.7 369.861,234.332 370.99,235.083 372.035,235.951 372.953,236.859 373.789,237.886 374.375,239.032 374.834,240.256 375.127,241.561 375.127,243.062 374.918,244.603 375.42,244.68 375.629,243.062 375.629,241.561 375.338,240.177 374.877,238.874 374.209,237.649 373.371,236.544 372.369,235.557 371.324,234.688 370.111,233.937 368.859,233.226 367.521,232.673 366.227,232.198 364.848,231.843 363.551,231.566 "
         style="fill:#ffffff" />
      <polygon
         id="polygon92"
         points="375.42,244.68 374.918,244.603 370.531,265.457 371.031,265.536 "
         style="fill:#ffffff" />
      <polygon
         id="polygon94"
         points="358.871,261.9 359.246,261.389 359.539,260.915 359.748,260.439 359.914,259.965 360.039,259.532 360.209,258.425 360.418,257.281 360.584,256.175 360.666,255.188 360.584,254.951 360.418,254.753 360.123,254.634 359.707,254.517 359.246,254.475 358.705,254.437 358.076,254.437 357.449,254.475 356.781,254.555 356.113,254.634 355.443,254.712 354.816,254.792 354.189,254.91 353.645,254.99 353.104,255.108 352.686,255.188 352.393,255.227 352.059,255.345 351.641,255.464 351.18,255.621 350.637,255.858 350.137,256.095 349.551,256.372 349.008,256.729 348.463,257.083 347.922,257.52 347.461,257.951 347,258.466 346.627,259.018 346.334,259.611 346.082,260.243 345.957,260.915 345.916,262.257 346.123,263.325 346.457,264.113 346.959,264.705 347.586,265.102 348.297,265.339 349.008,265.457 349.717,265.496 350.973,265.457 352.143,265.339 353.229,265.141 354.189,264.864 355.111,264.548 355.904,264.191 356.656,263.797 357.324,263.325 357.908,262.889 358.41,262.375 "
         style="fill:#fbb231" />
      <polygon
         id="polygon96"
         points="391.846,246.616 392.387,245.825 393.057,245.076 393.809,244.403 394.643,243.772 395.605,243.179 396.691,242.706 397.904,242.311 399.242,241.995 400.705,241.757 402.334,241.679 402.92,241.679 403.252,241.679 403.377,241.679 405.258,231.528 404.088,231.606 402.961,231.726 401.916,231.922 400.912,232.198 399.994,232.515 399.115,232.91 398.279,233.344 397.488,233.818 396.734,234.372 396.025,234.925 395.354,235.557 394.686,236.188 394.061,236.859 393.434,237.61 392.807,238.32 392.221,239.111 393.475,231.962 381.73,231.962 373.916,274.264 385.701,274.264 389.924,251.789 390.088,250.921 390.338,250.052 390.592,249.183 390.924,248.315 391.344,247.445 "
         style="fill:#ffffff" />
      <polyline
         id="polyline98"
         points="373.916,274.264 385.701,274.264    385.701,274.264 389.924,251.789 389.924,251.789 390.088,250.921 390.338,250.052 390.592,249.183 390.924,248.315    391.344,247.445 391.846,246.616 392.387,245.825 393.057,245.076 393.809,244.403 394.643,243.772 395.605,243.179    396.691,242.706 397.904,242.311 399.242,241.995 400.705,241.757 402.334,241.679 402.334,241.679 402.92,241.679    403.252,241.679 403.377,241.679 403.377,241.679 405.258,231.528 405.258,231.528 404.088,231.606 402.961,231.726    401.916,231.922 400.912,232.198 399.994,232.515 399.115,232.91 398.279,233.344 397.488,233.818 396.734,234.372    396.025,234.925 395.354,235.557 394.686,236.188 394.061,236.859 393.434,237.61 392.807,238.32 392.221,239.111 393.475,231.962    381.73,231.962 373.916,274.264 373.916,274.264  "
         stroke-miterlimit="2.6131"
         style="fill:none;stroke:#ffffff;stroke-width:0.21600001;stroke-miterlimit:2.61310005" />
      <polygon
         id="polygon100"
         points="294.596,231.528 293.299,231.606 292.129,231.726 291.043,231.922 290.039,232.16 289.078,232.476 288.201,232.87 287.404,233.265 286.652,233.739 285.943,234.252 285.273,234.845 284.648,235.438 284.021,236.108 283.395,236.78 282.809,237.531 282.182,238.32 281.555,239.111 283.059,231.962 271.066,231.962 263.25,274.264 275.035,274.264 275.246,274.264 279.256,251.789 279.422,250.921 279.633,250.092 279.842,249.263 280.135,248.473 280.469,247.683 280.885,246.933 281.387,246.22 281.973,245.55 282.643,244.955 283.395,244.365 284.313,243.891 285.316,243.456 286.486,243.1 287.781,242.784 289.203,242.586 290.832,242.468 290.957,242.468 291.127,242.508 291.334,242.548 291.543,242.548 291.754,242.586 291.92,242.626 292.045,242.666 292.086,242.666 292.129,242.508 292.254,242.034 292.422,241.323 292.631,240.454 292.922,239.427 293.217,238.32 293.592,237.215 293.969,236.108 294.301,235.358 294.721,234.608 295.137,233.858 295.555,233.187 295.932,232.594 296.225,232.12 296.434,231.843 296.516,231.726 296.475,231.726 296.307,231.686 296.1,231.646 295.807,231.606 295.514,231.606 295.178,231.566 294.887,231.528 "
         style="fill:#ffffff" />
      <polyline
         id="polyline102"
         points="263.25,274.264 275.035,274.264    275.246,274.264 279.256,251.789 279.256,251.789 279.422,250.921 279.633,250.092 279.842,249.263 280.135,248.473    280.469,247.683 280.885,246.933 281.387,246.22 281.973,245.55 282.643,244.955 283.395,244.365 284.313,243.891 285.316,243.456    286.486,243.1 287.781,242.784 289.203,242.586 290.832,242.468 290.832,242.468 290.957,242.468 291.127,242.508 291.334,242.548    291.543,242.548 291.754,242.586 291.92,242.626 292.045,242.666 292.086,242.666 292.086,242.666 292.129,242.508    292.254,242.034 292.422,241.323 292.631,240.454 292.922,239.427 293.217,238.32 293.592,237.215 293.969,236.108    293.969,236.108 294.301,235.358 294.721,234.608 295.137,233.858 295.555,233.187 295.932,232.594 296.225,232.12    296.434,231.843 296.516,231.726 296.516,231.726 296.475,231.726 296.307,231.686 296.1,231.646 295.807,231.606 295.514,231.606    295.178,231.566 294.887,231.528 294.596,231.528 294.596,231.528 293.299,231.606 292.129,231.726 291.043,231.922    290.039,232.16 289.078,232.476 288.201,232.87 287.404,233.265 286.652,233.739 285.943,234.252 285.273,234.845 284.648,235.438    284.021,236.108 283.395,236.78 282.809,237.531 282.182,238.32 281.555,239.111 283.059,231.962 271.066,231.962 263.25,274.264    263.25,274.264  "
         stroke-miterlimit="2.6131"
         style="fill:none;stroke:#ffffff;stroke-width:0.21600001;stroke-miterlimit:2.61310005" />
    </g>
    <g
       id="g863"
       transform="matrix(4.3945444,0,0,-4.3945444,-119.56225,152.76271)">
      <path
         d="m 117.331,26.863 c -0.424,-2.784 -2.55,-2.784 -4.606,-2.784 h -1.17 l 0.821,5.198 c 0.05,0.314 0.32,0.545 0.638,0.545 h 0.537 c 1.4,0 2.722,0 3.404,-0.797 0.407,-0.477 0.53,-1.185 0.376,-2.162 m -0.895,7.264 h -7.756 a 1.08,1.08 0 0 1 -1.066,-0.91 L 104.48,13.33 a 0.647,0.647 0 0 1 0.638,-0.747 h 3.98 c 0.371,0 0.687,0.27 0.745,0.636 l 0.89,5.64 c 0.082,0.523 0.534,0.91 1.064,0.91 h 2.454 c 5.11,0 8.058,2.471 8.828,7.372 0.347,2.142 0.014,3.826 -0.989,5.005 -1.103,1.296 -3.058,1.982 -5.653,1.982"
         id="path10"
         style="fill:#009cde" />
      <path
         d="m 62.011,26.863 c -0.424,-2.784 -2.55,-2.784 -4.607,-2.784 h -1.17 l 0.821,5.198 c 0.05,0.314 0.32,0.545 0.638,0.545 h 0.537 c 1.4,0 2.722,0 3.404,-0.797 0.408,-0.477 0.531,-1.185 0.377,-2.162 m -0.895,7.264 H 53.36 c -0.53,0 -0.982,-0.386 -1.065,-0.91 L 49.16,13.33 a 0.646,0.646 0 0 1 0.638,-0.747 h 3.704 c 0.53,0 0.981,0.386 1.064,0.91 l 0.847,5.365 c 0.082,0.524 0.534,0.91 1.064,0.91 h 2.454 c 5.11,0 8.058,2.472 8.828,7.373 0.347,2.142 0.014,3.826 -0.989,5.005 -1.103,1.296 -3.058,1.982 -5.653,1.982 M 79.123,19.723 c -0.36,-2.122 -2.043,-3.547 -4.192,-3.547 -1.077,0 -1.94,0.347 -2.494,1.003 -0.55,0.65 -0.756,1.577 -0.582,2.608 0.334,2.104 2.046,3.574 4.162,3.574 1.055,0 1.91,-0.35 2.476,-1.012 0.569,-0.667 0.793,-1.599 0.63,-2.626 m 5.176,7.23 h -3.714 a 0.647,0.647 0 0 1 -0.64,-0.547 l -0.162,-1.038 -0.26,0.376 c -0.804,1.167 -2.597,1.558 -4.387,1.558 -4.103,0 -7.608,-3.11 -8.29,-7.47 -0.355,-2.177 0.149,-4.256 1.383,-5.707 1.133,-1.333 2.75,-1.888 4.677,-1.888 3.308,0 5.142,2.124 5.142,2.124 l -0.166,-1.032 a 0.646,0.646 0 0 1 0.639,-0.747 h 3.344 c 0.53,0 0.982,0.385 1.065,0.91 l 2.008,12.713 a 0.647,0.647 0 0 1 -0.64,0.747"
         id="path12"
         style="fill:#003087" />
      <path
         d="m 134.443,19.723 c -0.36,-2.122 -2.043,-3.547 -4.192,-3.547 -1.077,0 -1.94,0.347 -2.494,1.003 -0.55,0.65 -0.756,1.577 -0.582,2.608 0.334,2.104 2.045,3.574 4.162,3.574 1.055,0 1.91,-0.35 2.476,-1.012 0.569,-0.667 0.793,-1.599 0.63,-2.626 m 5.176,7.23 h -3.714 a 0.647,0.647 0 0 1 -0.64,-0.547 l -0.162,-1.038 -0.26,0.376 c -0.804,1.167 -2.597,1.558 -4.387,1.558 -4.102,0 -7.607,-3.11 -8.29,-7.47 -0.355,-2.177 0.15,-4.256 1.384,-5.707 1.133,-1.333 2.75,-1.888 4.677,-1.888 3.309,0 5.143,2.124 5.143,2.124 l -0.166,-1.032 a 0.644,0.644 0 0 1 0.637,-0.747 h 3.343 c 0.53,0 0.982,0.385 1.066,0.91 l 2.008,12.713 a 0.647,0.647 0 0 1 -0.64,0.747"
         id="path14"
         style="fill:#009cde" />
      <path
         d="m 104.08,26.952 h -3.734 c -0.357,0 -0.69,-0.177 -0.89,-0.473 l -5.15,-7.584 -2.183,7.288 a 1.08,1.08 0 0 1 -1.033,0.77 h -3.669 a 0.647,0.647 0 0 1 -0.612,-0.856 l 4.11,-12.066 -3.866,-5.455 a 0.647,0.647 0 0 1 0.528,-1.02 h 3.73 c 0.352,0 0.683,0.173 0.885,0.463 l 12.414,17.918 a 0.646,0.646 0 0 1 -0.53,1.015"
         id="path16"
         style="fill:#003087" />
      <path
         d="m 143.996,33.58 -3.184,-20.251 a 0.647,0.647 0 0 1 0.639,-0.747 h 3.201 c 0.53,0 0.982,0.386 1.065,0.91 l 3.139,19.888 a 0.646,0.646 0 0 1 -0.639,0.747 h -3.582 a 0.645,0.645 0 0 1 -0.639,-0.546"
         id="path18"
         style="fill:#009cde" />
    </g>
    <g
       id="g20"
       transform="matrix(1.8289276,0,0,1.8289276,143.32116,-578.35215)">
      <path
         id="path2"
         d="m 352.64,357.25 c -4.274,17.143 -21.637,27.576 -38.782,23.301 -17.138,-4.274 -27.571,-21.638 -23.295,-38.78 4.272,-17.145 21.635,-27.579 38.775,-23.305 17.144,4.274 27.576,21.64 23.302,38.784 z"
         style="fill:#f7931a" />
      <path
         id="path4"
         d="m 335.71,344.95 c 0.637,-4.258 -2.605,-6.547 -7.038,-8.074 l 1.438,-5.768 -3.511,-0.875 -1.4,5.616 c -0.923,-0.23 -1.871,-0.447 -2.813,-0.662 l 1.41,-5.653 -3.509,-0.875 -1.439,5.766 c -0.764,-0.174 -1.514,-0.346 -2.242,-0.527 l 0.004,-0.018 -4.842,-1.209 -0.934,3.75 c 0,0 2.605,0.597 2.55,0.634 1.422,0.355 1.679,1.296 1.636,2.042 l -1.638,6.571 c 0.098,0.025 0.225,0.061 0.365,0.117 -0.117,-0.029 -0.242,-0.061 -0.371,-0.092 l -2.296,9.205 c -0.174,0.432 -0.615,1.08 -1.609,0.834 0.035,0.051 -2.552,-0.637 -2.552,-0.637 l -1.743,4.019 4.569,1.139 c 0.85,0.213 1.683,0.436 2.503,0.646 l -1.453,5.834 3.507,0.875 1.439,-5.772 c 0.958,0.26 1.888,0.5 2.798,0.726 l -1.434,5.745 3.511,0.875 1.453,-5.823 c 5.987,1.133 10.489,0.676 12.384,-4.739 1.527,-4.36 -0.076,-6.875 -3.226,-8.515 2.294,-0.529 4.022,-2.038 4.483,-5.155 z m -8.022,11.249 c -1.085,4.36 -8.426,2.003 -10.806,1.412 l 1.928,-7.729 c 2.38,0.594 10.012,1.77 8.878,6.317 z m 1.086,-11.312 c -0.99,3.966 -7.1,1.951 -9.082,1.457 l 1.748,-7.01 c 1.982,0.494 8.365,1.416 7.334,5.553 z"
         style="fill:#ffffff" />
      <path
         id="path6"
         d="m 383.38,336.87 c 2.595,0 4.837,0.465 6.721,1.378 1.893,0.922 3.455,2.164 4.708,3.726 1.236,1.57 2.156,3.405 2.75,5.508 0.59,2.109 0.886,4.376 0.886,6.803 0,3.728 -0.683,7.25 -2.062,10.57 -1.379,3.325 -3.25,6.209 -5.63,8.669 -2.378,2.457 -5.186,4.394 -8.424,5.825 -3.233,1.432 -6.748,2.148 -10.522,2.148 -0.488,0 -1.346,-0.014 -2.558,-0.039 -1.212,-0.025 -2.605,-0.15 -4.165,-0.361 -1.57,-0.219 -3.23,-0.543 -4.983,-0.977 -1.752,-0.426 -3.416,-1.023 -4.983,-1.781 l 14.012,-58.876 12.55,-1.945 -5.017,20.893 c 1.074,-0.484 2.156,-0.859 3.236,-1.132 1.081,-0.269 2.241,-0.409 3.481,-0.409 z m -10.527,34.671 c 1.89,0 3.671,-0.465 5.344,-1.378 1.678,-0.914 3.126,-2.148 4.339,-3.685 1.213,-1.544 2.173,-3.283 2.873,-5.226 0.7,-1.943 1.054,-3.97 1.054,-6.079 0,-2.591 -0.433,-4.612 -1.296,-6.073 -0.863,-1.455 -2.46,-2.187 -4.779,-2.187 -0.76,0 -1.739,0.145 -2.953,0.404 -1.218,0.275 -2.308,0.846 -3.285,1.705 l -5.342,22.188 c 0.322,0.057 0.607,0.111 0.85,0.162 0.238,0.055 0.501,0.094 0.763,0.121 0.277,0.031 0.594,0.047 0.977,0.047 0.383,0 0.862,10e-4 1.455,10e-4 z"
         style="fill:#4d4d4d" />
      <path
         id="path8"
         d="m 411.46,380.37 h -11.987 l 10.123,-42.597 h 12.069 z m 5.833,-47.787 c -1.673,0 -3.19,-0.498 -4.536,-1.496 -1.357,-0.992 -2.029,-2.519 -2.029,-4.577 0,-1.132 0.23,-2.194 0.686,-3.196 0.463,-1 1.068,-1.861 1.826,-2.593 0.757,-0.726 1.634,-1.306 2.63,-1.743 1.002,-0.43 2.068,-0.645 3.204,-0.645 1.672,0 3.181,0.498 4.532,1.496 1.346,1.003 2.023,2.53 2.023,4.577 0,1.136 -0.229,2.202 -0.689,3.202 -0.457,1 -1.062,1.861 -1.82,2.593 -0.751,0.727 -1.636,1.305 -2.63,1.738 -1.003,0.437 -2.065,0.644 -3.197,0.644 z"
         style="fill:#4d4d4d" />
      <path
         id="path10-3"
         d="m 432.17,327.16 12.555,-1.945 -3.083,12.556 h 13.446 l -2.428,9.878 h -13.365 l -3.56,14.9 c -0.328,1.242 -0.514,2.402 -0.566,3.48 -0.059,1.083 0.078,2.013 0.402,2.796 0.322,0.785 0.901,1.39 1.741,1.818 0.836,0.435 2.033,0.654 3.603,0.654 1.293,0 2.553,-0.123 3.771,-0.367 1.211,-0.24 2.438,-0.574 3.68,-1.011 l 0.894,9.236 c -1.62,0.594 -3.374,1.105 -5.264,1.535 -1.893,0.436 -4.134,0.646 -6.724,0.646 -3.724,0 -6.611,-0.553 -8.668,-1.654 -2.054,-1.109 -3.506,-2.624 -4.375,-4.542 -0.857,-1.911 -1.24,-4.114 -1.133,-6.596 0.111,-2.488 0.486,-5.103 1.133,-7.857 z"
         style="fill:#4d4d4d" />
      <path
         id="path12-6"
         d="m 454.56,363.36 c 0,-3.669 0.594,-7.129 1.781,-10.368 1.185,-3.242 2.892,-6.077 5.107,-8.51 2.207,-2.421 4.896,-4.339 8.061,-5.747 3.15,-1.4 6.677,-2.106 10.564,-2.106 2.433,0 4.606,0.23 6.518,0.691 1.92,0.465 3.657,1.066 5.228,1.82 l -4.134,9.4 c -1.08,-0.438 -2.201,-0.824 -3.36,-1.174 -1.16,-0.357 -2.576,-0.529 -4.251,-0.529 -4.001,0 -7.164,1.379 -9.518,4.128 -2.345,2.751 -3.526,6.454 -3.526,11.099 0,2.753 0.594,4.979 1.786,6.682 1.186,1.703 3.377,2.55 6.558,2.55 1.57,0 3.085,-0.164 4.536,-0.484 1.462,-0.324 2.753,-0.732 3.89,-1.214 l 0.895,9.636 c -1.516,0.588 -3.188,1.119 -5.022,1.584 -1.838,0.449 -4.026,0.682 -6.563,0.682 -3.349,0 -6.184,-0.49 -8.503,-1.455 -2.32,-0.98 -4.237,-2.281 -5.747,-3.929 -1.518,-1.652 -2.608,-3.581 -3.282,-5.795 -0.674,-2.212 -1.018,-4.536 -1.018,-6.961 z"
         style="fill:#4d4d4d" />
      <path
         id="path14-7"
         d="m 507.81,381.5 c -2.861,0 -5.346,-0.436 -7.454,-1.299 -2.102,-0.863 -3.843,-2.074 -5.22,-3.644 -1.379,-1.562 -2.411,-3.413 -3.118,-5.546 -0.707,-2.132 -1.047,-4.493 -1.047,-7.08 0,-3.245 0.521,-6.489 1.574,-9.724 1.048,-3.242 2.603,-6.155 4.661,-8.744 2.042,-2.593 4.561,-4.713 7.527,-6.366 2.963,-1.642 6.371,-2.468 10.199,-2.468 2.809,0 5.281,0.437 7.418,1.3 2.127,0.861 3.879,2.082 5.264,3.644 1.37,1.57 2.411,3.413 3.111,5.549 0.705,2.128 1.053,4.495 1.053,7.084 0,3.235 -0.514,6.479 -1.534,9.724 -1.021,3.229 -2.536,6.149 -4.536,8.744 -1.996,2.589 -4.492,4.708 -7.49,6.354 -2.994,1.646 -6.466,2.472 -10.408,2.472 z m 5.991,-34.662 c -1.777,0 -3.348,0.516 -4.693,1.535 -1.35,1.031 -2.484,2.327 -3.398,3.89 -0.924,1.57 -1.609,3.282 -2.072,5.143 -0.459,1.865 -0.684,3.628 -0.684,5.303 0,2.703 0.436,4.808 1.293,6.323 0.869,1.507 2.43,2.265 4.699,2.265 1.783,0 3.346,-0.512 4.699,-1.542 1.342,-1.023 2.477,-2.32 3.398,-3.886 0.918,-1.562 1.609,-3.279 2.072,-5.143 0.453,-1.859 0.684,-3.632 0.684,-5.304 0,-2.696 -0.434,-4.806 -1.299,-6.319 -0.864,-1.507 -2.432,-2.265 -4.699,-2.265 z"
         style="fill:#4d4d4d" />
      <path
         id="path16-5"
         d="m 544.84,380.37 h -11.997 l 10.123,-42.597 h 12.075 z m 5.824,-47.787 c -1.672,0 -3.188,-0.498 -4.532,-1.496 -1.35,-0.992 -2.028,-2.519 -2.028,-4.577 0,-1.132 0.233,-2.194 0.69,-3.196 0.457,-1 1.066,-1.861 1.824,-2.593 0.753,-0.726 1.638,-1.306 2.632,-1.743 0.996,-0.43 2.062,-0.645 3.194,-0.645 1.676,0 3.19,0.498 4.538,1.496 1.349,1.003 2.03,2.53 2.03,4.577 0,1.136 -0.242,2.202 -0.695,3.202 -0.453,1 -1.062,1.861 -1.817,2.593 -0.76,0.727 -1.634,1.305 -2.63,1.738 -1.004,0.437 -2.068,0.644 -3.206,0.644 z"
         style="fill:#4d4d4d" />
      <path
         id="path18-3"
         d="m 563.68,339.71 c 0.91,-0.266 1.926,-0.586 3.031,-0.934 1.109,-0.348 2.348,-0.672 3.732,-0.964 1.369,-0.301 2.914,-0.545 4.613,-0.734 1.699,-0.193 3.635,-0.287 5.786,-0.287 6.322,0 10.68,1.841 13.086,5.512 2.404,3.671 2.82,8.695 1.26,15.063 l -5.514,23 h -12.066 l 5.344,-22.516 c 0.326,-1.406 0.582,-2.765 0.771,-4.093 0.191,-1.316 0.18,-2.476 -0.043,-3.48 -0.213,-0.992 -0.715,-1.804 -1.494,-2.433 -0.791,-0.619 -1.986,-0.93 -3.607,-0.93 -1.563,0 -3.153,0.168 -4.776,0.492 l -7.857,32.959 h -12.071 z"
         style="fill:#4d4d4d" />
    </g>
  </g>
</svg>
